<?xml version="1.0" encoding="UTF-8" standalone="no"?>
<svg
   xmlns:svg="http://www.w3.org/2000/svg"
   xmlns="http://www.w3.org/2000/svg"
   version="1.1"
   width="2352"
   height="742"
   viewBox="0 0 2352 742"
   style="fill:#5a5c62"
   id="svg2">
  <path
     d="m 299.391,706.6562 -25.465,-2.2539 C 274.031,703.2109 283.762,583.648 225.289,455.359 169.34,332.621 104.527,306.504 103.867,306.246 l 4.551,-12.18 1.949,-12.41 c 5.047,0.789 125.141,20 245.207,73.68 119.922,53.566 177.309,95.031 179.692,96.769 l -15.055,20.665 c -0.566,-0.418 -57.926,-41.75 -175.066,-94.098 -45.344,-20.266 -91.262,-35.582 -130.559,-46.746 28.551,16.851 61.129,38.488 95.125,65.586 109.676,87.484 155.379,227.32 157.266,233.218 l -24.34,7.825 c -0.446,-1.391 -45.379,-138.489 -148.864,-221.047 -37.425,-29.844 -73.324,-52.903 -103.601,-70.071 18.883,23.555 39.176,55.184 58.375,97.297 61.398,134.715 51.308,256.8051 50.844,261.9222"
     id="path4" />
  <path
     d="m 146.875,291.75 c 0,20.973 -17.016,37.988 -37.984,37.988 -20.973,0 -37.9847,-17.015 -37.9847,-37.988 0,-20.965 17.0117,-37.988 37.9847,-37.988 20.968,0 37.984,17.023 37.984,37.988 v 0"
     style="fill:#f79224"
     id="path6" />
  <path
     d="m 318.063,220.852 c 0,20.972 -17.024,37.98 -37.989,37.98 -20.972,0 -37.984,-17.008 -37.984,-37.98 0,-20.969 17.012,-37.989 37.984,-37.989 20.965,0 37.989,17.02 37.989,37.989 v 0"
     id="path8" />
  <path
     d="m 488.23,292.766 c 0,20.972 -17.007,37.984 -37.98,37.984 -20.969,0 -37.988,-17.012 -37.988,-37.984 0,-20.965 17.019,-37.985 37.988,-37.985 20.973,0 37.98,17.02 37.98,37.985 v 0"
     id="path10" />
  <path
     d="m 559.133,462.937 c 0,20.965 -17.016,37.977 -37.981,37.977 -20.964,0 -37.976,-17.012 -37.976,-37.977 0,-20.964 17.012,-37.976 37.976,-37.976 20.965,0 37.981,17.012 37.981,37.976 v 0"
     id="path12" />
  <path
     d="m 488.23,633.113 c 0,20.9651 -17.007,37.9807 -37.98,37.9807 -20.969,0 -37.988,-17.0156 -37.988,-37.9807 0,-20.968 17.019,-37.976 37.988,-37.976 20.973,0 37.98,17.008 37.98,37.976 v 0"
     id="path14" />
  <path
     d="m 318.063,704.0195 c 0,20.9688 -17.024,37.9805 -37.989,37.9805 -20.972,0 -37.984,-17.0117 -37.984,-37.9805 0,-20.9648 17.012,-37.9961 37.984,-37.9961 20.965,0 37.989,17.0313 37.989,37.9961 v 0"
     id="path14" />
  <path
     d="m 146.875,634.117 c 0,20.9689 -17.016,38.0002 -37.984,38.0002 -20.973,0 -37.9847,-17.0313 -37.9847,-38.0002 0,-20.965 17.0117,-37.969 37.9847,-37.969 20.968,0 37.984,17.004 37.984,37.969 v 0"
     id="path16" />
  <path
     d="m 75.9727,462.937 c 0,20.965 -17.0157,37.977 -37.9844,37.977 C 17.0156,500.914 0,483.902 0,462.937 c 0,-20.964 17.0156,-37.976 37.9883,-37.976 20.9687,0 37.9844,17.012 37.9844,37.976 v 0"
     id="path18" />
  <path
     d="m 650.063,210.324 h 109.375 v 64.039 c 11.839,-25.238 27.574,-44.41 47.218,-57.496 19.629,-13.094 41.121,-19.633 64.492,-19.633 16.524,0 33.817,4.368 51.887,13.09 l -39.722,109.844 c -14.961,-7.481 -27.266,-11.227 -36.926,-11.227 -19.645,0 -36.309,12.164 -50.024,36.465 -13.398,24.313 -20.097,71.985 -20.097,143.031 l 0.468,24.786 V 718.8867 H 650.063 V 210.324"
     id="path20" />
  <path
     d="M 1098.8,210.324 V 718.8867 H 970.719 V 210.324 Z m -6.56,-185.101 c 16.21,16.207 24.31,35.836 24.31,58.894 0,22.75 -7.94,42.223 -23.84,58.43 -15.89,15.89 -34.89,23.832 -57.02,23.832 -22.75,0 -42.229,-8.102 -58.428,-24.301 -15.895,-16.516 -23.84,-36.461 -23.84,-59.828 0,-22.438 7.945,-41.602 23.84,-57.496 15.886,-15.895 35.058,-23.84 57.498,-23.84 22.43,0 41.6,8.102 57.48,24.309 z"
     id="path22" />
  <path
     d="m 1456.38,315.023 c -39.59,0 -72.45,14.028 -98.65,42.071 -26.17,27.734 -39.25,63.422 -39.25,107.054 0,43.914 13.26,80.079 39.74,108.426 26.79,28.371 59.67,42.531 98.64,42.531 40.17,0 73.53,-13.859 100.02,-41.589 26.49,-28.047 39.74,-64.661 39.74,-109.856 0,-44.226 -13.25,-80.066 -39.74,-107.496 -26.49,-27.426 -59.99,-41.141 -100.5,-41.141 m 261.29,-104.699 v 508.5627 h -127.15 v -53.7422 c -24.93,23.6719 -50,40.8086 -75.24,51.4063 -24.93,10.2734 -52.06,15.4101 -81.34,15.4101 -65.77,0 -122.62,-25.3906 -170.62,-76.1718 -47.98,-51.1131 -71.99,-114.5191 -71.99,-190.2541 0,-78.515 23.24,-142.871 69.66,-193.039 46.42,-50.18 102.83,-75.262 169.22,-75.262 30.53,0 59.2,5.762 85.99,17.289 26.81,11.539 51.58,28.832 74.32,51.891 v -56.09 z"
     id="path24" />
  <path
     d="m 1977.1,14 v 406.207 l 187.91,-209.883 h 159.84 l -218.75,244 245.4,264.5627 H 2193.05 L 1977.1,484.703 V 718.8867 H 1849.49 V 14 Z"
     id="path26" />
</svg>
